<svg id="Group_162" data-name="Group 162" xmlns="http://www.w3.org/2000/svg" width="124.26" height="36.92" viewBox="0 0 124.26 36.92">
  <path id="Path_44" data-name="Path 44" d="M105.919,5.52a2.7,2.7,0,0,1,2.7,2.7h0v7.665h7.422a2.7,2.7,0,1,1,0,5.395H108.62v7.275a2.7,2.7,0,0,1-2.7,2.7l-20.67-.007a2.7,2.7,0,0,1-2.7-2.7V18.462h.007a2.7,2.7,0,0,1,2.694-2.576h17.969V10.918H82.482L72.634,29.182a2.751,2.751,0,0,1-5.222.372L59.637,14.293,51.773,29.211A3.482,3.482,0,0,1,50.135,31.1a2.692,2.692,0,0,1-3.5-1.071,2.6,2.6,0,0,1-.25-.482L36.891,10.915H21.038v4.968H33.855a2.7,2.7,0,0,1,0,5.395H21.038V28.7a2.7,2.7,0,0,1-5.395,0V21.281H8.217a2.7,2.7,0,0,1,0-5.395H15.64V8.217h0a2.7,2.7,0,0,1,2.7-2.7H38.459A2.945,2.945,0,0,1,41.009,7.1L48.965,22.72,56.947,7.805c.4-.817.622-1.549,1.487-1.965A2.689,2.689,0,0,1,59.6,5.571a2.716,2.716,0,0,1,1.814.7,3.25,3.25,0,0,1,1.056,1.3l7.522,15.15L78.434,7.058a2.722,2.722,0,0,1,.868-.924,2.7,2.7,0,0,1,1.722-.622h24.895M87.828,25.851h15.393v-4.57H87.828v4.57M105.919,0h-24.9a8.228,8.228,0,0,0-5,1.7,8.214,8.214,0,0,0-2.385,2.635L73.6,4.39l-.029.055-3.444,6.388s-4-7.827-5.159-8.78A8.211,8.211,0,0,0,56.034.868C53.892,1.9,52.707,3.787,51.7,6.009l-2.6,4.824L45.94,4.64A8.466,8.466,0,0,0,38.455,0H18.337A8.209,8.209,0,0,0,10.12,8.217v2.145h-1.9a8.219,8.219,0,0,0,0,16.438h1.9v1.9a8.217,8.217,0,0,0,16.434,0V26.8h7.3a8.183,8.183,0,0,0,4.309-1.222l3.216,6.315a8.469,8.469,0,0,0,.563,1.049,8.21,8.21,0,0,0,10.58,3.135A9.436,9.436,0,0,0,57.16,31.4L59.5,26.179l2.911,5.715a8.1,8.1,0,0,0,.559,1.041,8.213,8.213,0,0,0,14.675-1.284,8.235,8.235,0,0,0,7.61,5.111l20.67.007a8.1,8.1,0,0,0,8.217-8.07V26.8h1.9a8.217,8.217,0,0,0,0-16.434h-1.9V8.217A8.214,8.214,0,0,0,105.919,0Z" fill="silver"/>
</svg>
