<svg id="awwwards-seeklogo.com" xmlns="http://www.w3.org/2000/svg" width="232.841" height="36.99" viewBox="0 0 232.841 36.99">
  <path id="logo-a1" d="M.991,13.366C1.816,9.072,5.615,6.1,10.9,6.1c6.11,0,10.9,2.642,10.9,10.9V32.357H16.514l-.661-3.3a9.488,9.488,0,0,1-7.927,3.8C3.468,32.852,0,30.045,0,24.925S4.624,16.5,11.064,16.5h4.294V15.348c0-2.972-2.147-3.8-4.624-3.8a4.321,4.321,0,0,0-4.459,2.972ZM9.413,27.4c2.972,0,5.945-1.982,5.945-5.284v-.5H11.229c-2.807-.165-4.459.991-4.459,3.3A2.575,2.575,0,0,0,9.413,27.4Z" transform="translate(0 3.973)" fill="silver"/>
  <path id="logo-a2" d="M76.391,13.366C77.216,9.072,81.015,6.1,86.3,6.1c6.11,0,10.9,2.642,10.9,10.9V32.357H91.914l-.661-3.3a9.488,9.488,0,0,1-7.927,3.8c-4.459,0-7.927-2.807-7.927-7.927S80.024,16.5,86.464,16.5h4.294V15.348c0-2.972-2.147-3.8-4.624-3.8a4.321,4.321,0,0,0-4.459,2.972ZM84.813,27.4c2.972,0,5.945-1.982,5.945-5.284v-.5H86.464c-2.807,0-4.459.991-4.459,3.3A2.863,2.863,0,0,0,84.813,27.4Z" transform="translate(49.112 3.973)" fill="silver"/>
  <path id="logo-r" d="M92.1,32.522V6.43h6.44v4.294a8.818,8.818,0,0,1,7.6-4.624,9.615,9.615,0,0,1,3.138.5l-1.156,5.945a4.99,4.99,0,0,0-2.642-.826c-3.8,0-6.936,3.138-6.936,11.394v9.248l-6.44.165Z" transform="translate(59.99 3.973)" fill="silver"/>
  <path id="logo-d" d="M115.425,10.073a8.342,8.342,0,0,1,6.275,2.807V0h6.44V36.495H121.7V33.853a7.656,7.656,0,0,1-6.275,3.138c-7.761,0-11.725-5.449-11.725-13.376S107.663,10.073,115.425,10.073Zm.991,21.3c3.3,0,5.945-2.807,5.945-7.927s-2.642-7.927-5.945-7.927-5.945,2.807-5.945,7.927S113.113,31.376,116.415,31.376Z" transform="translate(67.546)" fill="silver"/>
  <path id="logo-s" d="M139.665,10.359l-3.8,3.468a5.416,5.416,0,0,0-4.294-2.312,2.27,2.27,0,0,0-2.477,2.147c0,1.156.991,1.982,2.477,2.477,3.633,1.321,9.413,2.477,9.413,7.927,0,4.789-3.633,8.587-9.248,8.587A11.022,11.022,0,0,1,121.5,25.716l5.119-2.807c.991,2.477,2.642,4.294,5.284,4.294,1.982,0,3.3-.991,3.3-2.807,0-2.147-3.3-2.642-6.44-3.963-2.807-1.156-5.284-2.972-5.284-6.936s3.3-7.6,8.257-7.6A10.022,10.022,0,0,1,139.665,10.359Z" transform="translate(79.14 3.843)" fill="silver"/>
  <path id="logo-w2" d="M61.931,6.3l-4.624,18-4.459-18H46.9l-4.294,18L38.977,13.9l-.5,1.156L36.5,21.823l3.3,10.569h5.615l4.459-16.844,4.459,16.844h5.78L68.371,6.3Z" transform="translate(23.775 4.104)" fill="silver"/>
  <path id="logo-w3" d="M80.7,6.3l-4.624,18-4.459-18H65.669l-4.294,18L57.742,13.9l-.5,1.156L55.1,21.823l3.468,10.569h5.615l4.459-16.844L73.1,32.391h5.615L87.136,6.3Z" transform="translate(35.89 4.104)" fill="silver"/>
  <path id="logo-w1" d="M51.56,6.3,43.3,32.226H37.689L33.23,15.548,28.771,32.391H23.157L14.9,6.465h6.44L25.964,24.3,30.423,6.465h5.945L40.826,24.3,45.45,6.465,51.56,6.3Z" transform="translate(9.705 4.104)" fill="silver"/>
  <path id="logo-p" d="M140.094,17a4.165,4.165,0,0,1,4.294,4.294,4.294,4.294,0,0,1-8.587,0A4.165,4.165,0,0,1,140.094,17Z" transform="translate(88.454 11.073)" fill="silver"/>
</svg>
