<svg xmlns="http://www.w3.org/2000/svg" width="27.897" height="17.359" viewBox="0 0 27.897 17.359">
  <g id="behance-logo_1_" data-name="behance-logo (1)" transform="translate(-0.001 0)">
    <path id="Behance" d="M25.194,2.456H18.2V.72h6.991V2.456h0ZM13.55,9.576a4.59,4.59,0,0,1,.676,2.543,5.064,5.064,0,0,1-.771,2.77,4.8,4.8,0,0,1-1.228,1.363,4.745,4.745,0,0,1-1.959.872,12.113,12.113,0,0,1-2.451.235H0V0H8.383c2.113.034,3.611.647,4.5,1.849A4.417,4.417,0,0,1,13.673,4.5a3.864,3.864,0,0,1-.8,2.556,4.092,4.092,0,0,1-1.322.988A3.854,3.854,0,0,1,13.55,9.576ZM4,6.844H7.676a3.481,3.481,0,0,0,1.835-.43,1.641,1.641,0,0,0,.7-1.526,1.554,1.554,0,0,0-.932-1.6,6.557,6.557,0,0,0-2.049-.271H4Zm6.566,5.028a1.862,1.862,0,0,0-1.1-1.86,4.35,4.35,0,0,0-1.736-.294H4v4.626H7.672a4.076,4.076,0,0,0,1.758-.3A2.189,2.189,0,0,0,10.569,11.871ZM27.787,9.047a16.329,16.329,0,0,1,.107,2.469H18.841a2.972,2.972,0,0,0,1.3,2.624,3.273,3.273,0,0,0,1.792.467A2.525,2.525,0,0,0,24.4,13.183h3.318a4.041,4.041,0,0,1-1.2,2.247,6.039,6.039,0,0,1-4.676,1.815,6.786,6.786,0,0,1-4.38-1.53q-1.893-1.534-1.9-4.981a6.733,6.733,0,0,1,1.711-4.957,6,6,0,0,1,4.448-1.724,7.089,7.089,0,0,1,2.924.581A5.036,5.036,0,0,1,26.8,6.475,6.137,6.137,0,0,1,27.787,9.047Zm-3.266.324a2.715,2.715,0,0,0-.869-1.965,2.834,2.834,0,0,0-1.927-.673,2.578,2.578,0,0,0-1.94.713,3.351,3.351,0,0,0-.867,1.925h5.6Z" transform="translate(0 0)" fill="#191919"/>
  </g>
</svg>
