<svg xmlns="http://www.w3.org/2000/svg" width="26.167" height="18.316" viewBox="0 0 26.167 18.316">
  <g id="black-envelope" transform="translate(0 0)">
    <g id="Group_3350" data-name="Group 3350" transform="translate(0 0)">
      <path id="Path_886" data-name="Path 886" d="M2.173,5.261,11.6,12.727a2.4,2.4,0,0,0,1.588.46,2.392,2.392,0,0,0,1.587-.46L24.2,5.261c.755-.595.584-1.082-.374-1.082H2.549C1.59,4.179,1.419,4.667,2.173,5.261Z" transform="translate(-0.103 -4.179)" fill="#202020"/>
      <path id="Path_887" data-name="Path 887" d="M24.777,7.409l-10.3,7.82a2.5,2.5,0,0,1-2.785,0L1.39,7.409C.626,6.83,0,7.141,0,8.1V20.93a1.75,1.75,0,0,0,1.744,1.744H24.423a1.75,1.75,0,0,0,1.744-1.744V8.1C26.167,7.141,25.542,6.83,24.777,7.409Z" transform="translate(0 -4.357)" fill="#202020"/>
    </g>
  </g>
</svg>
