<svg xmlns="http://www.w3.org/2000/svg" width="15.28" height="28.264" viewBox="0 0 15.28 28.264">
  <g id="facebook-logo" transform="translate(0)">
    <path id="Path_717" data-name="Path 717" d="M36.782.006,33.117,0C29,0,26.338,2.73,26.338,6.956v3.207H22.653a.576.576,0,0,0-.576.577v4.647a.576.576,0,0,0,.576.576h3.685V27.687a.576.576,0,0,0,.576.576h4.808a.576.576,0,0,0,.576-.576V15.962h4.309a.576.576,0,0,0,.576-.576l0-4.647a.577.577,0,0,0-.577-.577H32.3V7.444c0-1.307.311-1.97,2.013-1.97h2.469a.576.576,0,0,0,.576-.576V.582A.576.576,0,0,0,36.782.006Z" transform="translate(-22.077)" fill="#fff"/>
  </g>
</svg>
