<svg xmlns="http://www.w3.org/2000/svg" width="23.438" height="23.438" viewBox="0 0 23.438 23.438">
  <g id="instagram" transform="translate(0 0)">
    <g id="Group_44" data-name="Group 44" transform="translate(0 0)">
      <g id="Group_43" data-name="Group 43">
        <path id="Path_13" data-name="Path 13" d="M16.113,0H7.324A7.325,7.325,0,0,0,0,7.324v8.789a7.325,7.325,0,0,0,7.324,7.324h8.789a7.325,7.325,0,0,0,7.324-7.324V7.324A7.325,7.325,0,0,0,16.113,0ZM21.24,16.113a5.133,5.133,0,0,1-5.127,5.127H7.324A5.133,5.133,0,0,1,2.2,16.113V7.324A5.133,5.133,0,0,1,7.324,2.2h8.789A5.133,5.133,0,0,1,21.24,7.324Z" fill="#fff"/>
      </g>
    </g>
    <g id="Group_46" data-name="Group 46" transform="translate(5.859 5.859)">
      <g id="Group_45" data-name="Group 45">
        <path id="Path_14" data-name="Path 14" d="M5.859,0a5.859,5.859,0,1,0,5.859,5.859A5.86,5.86,0,0,0,5.859,0Zm0,9.522A3.662,3.662,0,1,1,9.522,5.859,3.667,3.667,0,0,1,5.859,9.522Z" fill="#fff"/>
      </g>
    </g>
    <g id="Group_48" data-name="Group 48" transform="translate(17.237 4.639)">
      <g id="Group_47" data-name="Group 47">
        <circle id="Ellipse_29" data-name="Ellipse 29" cx="0.781" cy="0.781" r="0.781" fill="#fff"/>
      </g>
    </g>
  </g>
</svg>
