<svg xmlns="http://www.w3.org/2000/svg" width="23.805" height="22.748" viewBox="0 0 23.805 22.748">
  <g id="Group_3349" data-name="Group 3349" transform="translate(0 -0.001)">
    <path id="Path_885" data-name="Path 885" d="M50.873,37.914v8.8h-5.1V38.5c0-2.062-.737-3.47-2.585-3.47A2.791,2.791,0,0,0,40.567,36.9a3.493,3.493,0,0,0-.169,1.244v8.572h-5.1s.069-13.909,0-15.349h5.1v2.175c-.01.017-.025.034-.034.05H40.4v-.05A5.067,5.067,0,0,1,45,31.007c3.358,0,5.875,2.194,5.875,6.907ZM29.956,23.969a2.659,2.659,0,1,0-.067,5.3h.033a2.66,2.66,0,1,0,.034-5.3ZM27.371,46.717h5.1V31.368h-5.1Z" transform="translate(-27.068 -23.969)" fill="#f1f2f2"/>
  </g>
</svg>
