<svg xmlns="http://www.w3.org/2000/svg" width="148.113" height="27.791" viewBox="0 0 148.113 27.791">
  <g id="Group_3805" data-name="Group 3805" transform="translate(-321.846 -77.578)">
    <g id="Group_154" data-name="Group 154" transform="translate(34 -5)">
      <path id="Path_891" data-name="Path 891" d="M22.8-10.494a10.816,10.816,0,0,1-2.944,7.778A10.1,10.1,0,0,1,12.2.369,9.759,9.759,0,0,1,4.729-2.716a10.946,10.946,0,0,1-2.883-7.778V-15.1a10.973,10.973,0,0,1,2.874-7.77A9.739,9.739,0,0,1,12.2-25.963a10.1,10.1,0,0,1,7.646,3.094A10.806,10.806,0,0,1,22.8-15.1Zm-4.271-4.641a7.96,7.96,0,0,0-1.705-5.256A5.69,5.69,0,0,0,12.2-22.447a5.371,5.371,0,0,0-4.456,2.057,8.216,8.216,0,0,0-1.626,5.256v4.641a8.28,8.28,0,0,0,1.635,5.3A5.368,5.368,0,0,0,12.2-3.129a5.684,5.684,0,0,0,4.632-2.057,8.069,8.069,0,0,0,1.7-5.309ZM30.762-19.02l.246,2.742a6.8,6.8,0,0,1,2.347-2.276,6.262,6.262,0,0,1,3.19-.817,5.941,5.941,0,0,1,4.632,1.828q1.661,1.828,1.661,5.713V0H38.566V-11.795a4.594,4.594,0,0,0-.861-3.146,3.375,3.375,0,0,0-2.6-.932,5.1,5.1,0,0,0-2.373.519,4.156,4.156,0,0,0-1.6,1.433V0H26.859V-19.02Zm66.814-4.623v4.623h3.41v3.164h-3.41V-5.344a2.292,2.292,0,0,0,.51,1.679,1.847,1.847,0,0,0,1.354.5,3.777,3.777,0,0,0,.686-.062,4.167,4.167,0,0,0,.633-.167l.457,3.129A4.908,4.908,0,0,1,99.923.2a7.112,7.112,0,0,1-1.556.167,4.928,4.928,0,0,1-3.7-1.38,6.017,6.017,0,0,1-1.345-4.333V-15.855h-2.9V-19.02h2.9v-4.623Zm6.064,13.957a10.328,10.328,0,0,1,2.329-6.97,7.954,7.954,0,0,1,6.372-2.716,8.015,8.015,0,0,1,6.425,2.716,10.328,10.328,0,0,1,2.329,6.97v.369a10.312,10.312,0,0,1-2.329,6.987,8,8,0,0,1-6.39,2.7,8.006,8.006,0,0,1-6.407-2.707,10.32,10.32,0,0,1-2.329-6.979Zm4.271.369A8.437,8.437,0,0,0,109-4.781a3.7,3.7,0,0,0,3.375,1.74,3.709,3.709,0,0,0,3.349-1.749,8.289,8.289,0,0,0,1.116-4.526v-.369a8.272,8.272,0,0,0-1.116-4.491,3.731,3.731,0,0,0-3.384-1.767,3.658,3.658,0,0,0-3.331,1.767,8.376,8.376,0,0,0-1.1,4.491ZM129.375,0H125.1V-27.422h4.271Zm3.99-9.246a12.542,12.542,0,0,1,1.951-7.339,6.311,6.311,0,0,1,5.484-2.786,6,6,0,0,1,2.769.624,6.265,6.265,0,0,1,2.118,1.784V-27.422h4.271V0H146.5l-.51-2.408a6.344,6.344,0,0,1-2.215,2.065,6.161,6.161,0,0,1-3.006.712,6.471,6.471,0,0,1-5.449-2.549,10.724,10.724,0,0,1-1.951-6.7Zm4.271.369a7.659,7.659,0,0,0,1.011,4.2,3.539,3.539,0,0,0,3.208,1.564,4.289,4.289,0,0,0,2.294-.58,4.416,4.416,0,0,0,1.538-1.652v-8.3a4.5,4.5,0,0,0-1.547-1.644,4.182,4.182,0,0,0-2.25-.589,3.444,3.444,0,0,0-3.217,1.837,9.692,9.692,0,0,0-1.037,4.79Z" transform="translate(286 110)" fill="#fff"/>
      <rect id="Rectangle_107" data-name="Rectangle 107" width="35.083" height="3.434" transform="translate(371.373 102.147) rotate(180)" fill="#fff"/>
    </g>
  </g>
</svg>
