<svg xmlns="http://www.w3.org/2000/svg" width="22.088" height="27.625" viewBox="0 0 22.088 27.625">
  <path id="Path_882" data-name="Path 882" d="M84.588,63.781c-7.788,0-11.712,5.406-11.712,9.913,0,2.729,1.066,5.158,3.356,6.062a.568.568,0,0,0,.821-.4l.334-1.275a.753.753,0,0,0-.235-.884,4.476,4.476,0,0,1-1.081-3.112c0-4.01,3.1-7.6,8.068-7.6,4.4,0,6.819,2.6,6.819,6.08,0,4.575-2.091,8.437-5.2,8.437a2.48,2.48,0,0,1-2.586-3.058c.492-2.008,1.448-4.178,1.448-5.63a2.153,2.153,0,0,0-2.211-2.383c-1.753,0-3.16,1.756-3.16,4.108a5.935,5.935,0,0,0,.523,2.511L77.666,85.2a17.275,17.275,0,0,0-.048,6.029.221.221,0,0,0,.389.091,16.821,16.821,0,0,0,2.959-5.195c.2-.706,1.153-4.362,1.153-4.362a4.737,4.737,0,0,0,4,1.979c5.267,0,8.842-4.651,8.842-10.875C94.962,68.165,90.846,63.781,84.588,63.781Z" transform="translate(-72.876 -63.781)" fill="#fff"/>
</svg>
