<svg xmlns="http://www.w3.org/2000/svg" width="27.872" height="24.73" viewBox="0 0 27.872 24.73">
  <g id="twitter_1_" data-name="twitter (1)" transform="matrix(0.966, 0.259, -0.259, 0.966, 4.983, 0)">
    <g id="Group_42" data-name="Group 42" transform="translate(0 0)">
      <path id="Path_10" data-name="Path 10" d="M23.7,2.279a10.128,10.128,0,0,1-2.8.767A4.831,4.831,0,0,0,23.034.361a9.708,9.708,0,0,1-3.081,1.176,4.858,4.858,0,0,0-8.4,3.322,5,5,0,0,0,.113,1.108A13.75,13.75,0,0,1,1.65.886,4.859,4.859,0,0,0,3.143,7.378a4.8,4.8,0,0,1-2.195-.6v.053A4.88,4.88,0,0,0,4.84,11.607a4.848,4.848,0,0,1-1.274.16,4.3,4.3,0,0,1-.92-.083,4.9,4.9,0,0,0,4.539,3.384A9.761,9.761,0,0,1,1.163,17.14,9.1,9.1,0,0,1,0,17.073a13.676,13.676,0,0,0,7.452,2.18A13.731,13.731,0,0,0,21.279,5.429c0-.215-.007-.422-.018-.628A9.691,9.691,0,0,0,23.7,2.279Z" transform="translate(0 0)" fill="#fff"/>
    </g>
  </g>
</svg>
