<svg xmlns="http://www.w3.org/2000/svg" width="28.352" height="23.029" viewBox="0 0 28.352 23.029">
  <g id="twitter-logo-silhouette" transform="translate(0 0.001)">
    <g id="Group_2873" data-name="Group 2873">
      <path id="Path_825" data-name="Path 825" d="M28.353,60.166a11.615,11.615,0,0,1-3.34.916,5.84,5.84,0,0,0,2.556-3.216,11.725,11.725,0,0,1-3.7,1.412,5.821,5.821,0,0,0-9.911,5.3A16.512,16.512,0,0,1,1.976,58.5a5.823,5.823,0,0,0,1.8,7.763,5.817,5.817,0,0,1-2.634-.73v.073a5.822,5.822,0,0,0,4.665,5.7,5.891,5.891,0,0,1-1.532.2,5.584,5.584,0,0,1-1.095-.108,5.819,5.819,0,0,0,5.432,4.039,11.669,11.669,0,0,1-7.223,2.486A12.364,12.364,0,0,1,0,77.854a16.44,16.44,0,0,0,8.915,2.617c10.7,0,16.547-8.862,16.547-16.547l-.02-.753A11.614,11.614,0,0,0,28.353,60.166Z" transform="translate(-0.001 -57.441)" fill="#fff"/>
    </g>
  </g>
</svg>
